<?xml version="1.0" encoding="UTF-8" standalone="no"?>
<!-- Created with Inkscape (http://www.inkscape.org/) -->

<svg
   xmlns:dc="http://purl.org/dc/elements/1.1/"
   xmlns:cc="http://creativecommons.org/ns#"
   xmlns:rdf="http://www.w3.org/1999/02/22-rdf-syntax-ns#"
   xmlns:svg="http://www.w3.org/2000/svg"
   xmlns="http://www.w3.org/2000/svg"
   xmlns:sodipodi="http://sodipodi.sourceforge.net/DTD/sodipodi-0.dtd"
   xmlns:inkscape="http://www.inkscape.org/namespaces/inkscape"
   width="211.59248mm"
   height="44.340424mm"
   viewBox="0 0 105.79624 22.170213"
   version="1.1"
   id="svg1561"
   inkscape:version="0.92.3 (2405546, 2018-03-11)"
   sodipodi:docname="logo_text_only_setted.svg">
  <defs
     id="defs1555">
    <filter
       style="color-interpolation-filters:sRGB"
       inkscape:label="Drop Shadow"
       id="filter1121"
       height="1.33"
       width="1.23">
      <feFlood
         flood-opacity="0.63"
         flood-color="rgb(0,0,0)"
         result="flood"
         id="feFlood1111" />
      <feComposite
         in="flood"
         in2="SourceGraphic"
         operator="in"
         result="composite1"
         id="feComposite1113"
         flood-opacity="0.79000000000000004" />
      <feGaussianBlur
         in="composite1"
         stdDeviation="1"
         result="blur"
         id="feGaussianBlur1115" />
      <feOffset
         dx="1.7000000000000002"
         dy="1.7"
         result="offset"
         id="feOffset1117" />
      <feComposite
         in="SourceGraphic"
         in2="offset"
         operator="over"
         result="composite2"
         id="feComposite1119" />
    </filter>
    <filter
       style="color-interpolation-filters:sRGB"
       inkscape:label="Drop Shadow"
       id="filter1251">
      <feFlood
         flood-opacity="0.498039"
         flood-color="rgb(0,0,0)"
         result="flood"
         id="feFlood1241" />
      <feComposite
         in="flood"
         in2="SourceGraphic"
         operator="in"
         result="composite1"
         id="feComposite1243" />
      <feGaussianBlur
         in="composite1"
         stdDeviation="1"
         result="blur"
         id="feGaussianBlur1245" />
      <feOffset
         dx="0.7"
         dy="0.7"
         result="offset"
         id="feOffset1247" />
      <feComposite
         in="SourceGraphic"
         in2="offset"
         operator="over"
         result="composite2"
         id="feComposite1249" />
    </filter>
    <filter
       style="color-interpolation-filters:sRGB"
       inkscape:label="Drop Shadow"
       id="filter2050">
      <feFlood
         flood-opacity="0.498039"
         flood-color="rgb(0,0,0)"
         result="flood"
         id="feFlood2040" />
      <feComposite
         in="flood"
         in2="SourceGraphic"
         operator="in"
         result="composite1"
         id="feComposite2042" />
      <feGaussianBlur
         in="composite1"
         stdDeviation="1"
         result="blur"
         id="feGaussianBlur2044" />
      <feOffset
         dx="1"
         dy="1"
         result="offset"
         id="feOffset2046" />
      <feComposite
         in="SourceGraphic"
         in2="offset"
         operator="over"
         result="composite2"
         id="feComposite2048" />
    </filter>
    <filter
       style="color-interpolation-filters:sRGB"
       inkscape:label="Drop Shadow"
       id="filter1251-3"
       height="1.26">
      <feFlood
         flood-opacity="0.498039"
         flood-color="rgb(0,0,0)"
         result="flood"
         id="feFlood1241-6" />
      <feComposite
         in="flood"
         in2="SourceGraphic"
         operator="in"
         result="composite1"
         id="feComposite1243-7" />
      <feGaussianBlur
         in="composite1"
         stdDeviation="1"
         result="blur"
         id="feGaussianBlur1245-5" />
      <feOffset
         dx="0.7"
         dy="0.7"
         result="offset"
         id="feOffset1247-3" />
      <feComposite
         in="SourceGraphic"
         in2="offset"
         operator="over"
         result="composite2"
         id="feComposite1249-5" />
    </filter>
    <filter
       style="color-interpolation-filters:sRGB"
       inkscape:label="Drop Shadow"
       id="filter2113"
       height="1.3">
      <feFlood
         flood-opacity="0.498039"
         flood-color="rgb(0,0,0)"
         result="flood"
         id="feFlood2103" />
      <feComposite
         in="flood"
         in2="SourceGraphic"
         operator="in"
         result="composite1"
         id="feComposite2105" />
      <feGaussianBlur
         in="composite1"
         stdDeviation="1"
         result="blur"
         id="feGaussianBlur2107" />
      <feOffset
         dx="1.2"
         dy="1"
         result="offset"
         id="feOffset2109" />
      <feComposite
         in="SourceGraphic"
         in2="offset"
         operator="over"
         result="composite2"
         id="feComposite2111" />
    </filter>
  </defs>
  <sodipodi:namedview
     id="base"
     pagecolor="#3d4a58"
     bordercolor="#666666"
     borderopacity="1.0"
     inkscape:pageopacity="0"
     inkscape:pageshadow="2"
     inkscape:zoom="0.49497475"
     inkscape:cx="170.73397"
     inkscape:cy="410.56977"
     inkscape:document-units="mm"
     inkscape:current-layer="layer1"
     showgrid="false"
     inkscape:window-width="1885"
     inkscape:window-height="1018"
     inkscape:window-x="0"
     inkscape:window-y="25"
     inkscape:window-maximized="1"
     scale-x="0.5"
     fit-margin-top="0"
     fit-margin-left="0"
     fit-margin-right="0"
     fit-margin-bottom="0" />
  <metadata
     id="metadata1558">
    <rdf:RDF>
      <cc:Work
         rdf:about="">
        <dc:format>image/svg+xml</dc:format>
        <dc:type
           rdf:resource="http://purl.org/dc/dcmitype/StillImage" />
        <dc:title></dc:title>
      </cc:Work>
    </rdf:RDF>
  </metadata>
  <g
     inkscape:label="Layer 1"
     inkscape:groupmode="layer"
     id="layer1"
     transform="translate(-50.813375,-46.377489)">
    <g
       aria-label="Fortress"
       style="font-style:normal;font-variant:normal;font-weight:bold;font-stretch:normal;font-size:21.16666603px;line-height:1.25;font-family:Baskerville;-inkscape-font-specification:'Baskerville Bold';letter-spacing:0px;word-spacing:0px;fill:#f9f9f9;fill-opacity:1;stroke:none;stroke-width:0.26458332;filter:url(#filter2113)"
       id="text1990">
      <path
         d="m 72.596805,62.161472 c 0.592667,-0.0635 2.201333,-0.08467 4.847167,-0.08467 1.058333,0 1.9685,0.02117 2.709333,0.08467 v -0.867834 c -2.116667,-0.08467 -2.2225,-0.5715 -2.2225,-2.307166 v -3.704167 c 0.148167,0 0.275167,-0.02117 0.402167,-0.02117 1.650999,0 2.307166,0.656166 2.561166,2.455333 h 0.910167 c -0.02117,-0.719667 -0.04233,-1.672167 -0.04233,-2.815167 0,-0.889 0.02117,-1.883833 0.04233,-2.9845 h -0.910167 c -0.232833,1.672167 -0.994833,2.391834 -2.6035,2.391834 h -0.359833 v -4.6355 c 0,-0.635 0.232833,-0.762 1.121833,-0.762 2.921,0 4.191,0.465666 4.550833,2.645833 h 0.867834 l -0.127,-3.704166 c -1.756834,0.0635 -3.640667,0.08467 -5.630333,0.08467 -2.307167,0 -4.339167,-0.02117 -6.117167,-0.105833 v 0.867833 c 1.693333,0.02117 2.0955,0.486834 2.0955,2.0955 v 8.128 c 0,1.778 -0.232833,2.307166 -2.0955,2.370666 z"
         style="fill:#f9f9f9;stroke-width:0.26458332"
         id="path2221"
         inkscape:connector-curvature="0" />
      <path
         d="m 83.982818,57.483639 c 0,2.836333 2.159,4.889499 5.185833,4.889499 3.196167,0 5.334,-2.031999 5.334,-5.058833 0,-2.772833 -2.116667,-4.783666 -5.1435,-4.783666 -3.217333,0 -5.376333,2.0955 -5.376333,4.953 z m 3.196167,0.04233 c 0,-2.794 0.613833,-4.106333 2.116666,-4.106333 1.418167,0 2.032,1.27 2.032,3.8735 0,2.8575 -0.529166,4.190999 -2.053166,4.190999 -1.629834,0 -2.0955,-1.248833 -2.0955,-3.958166 z"
         style="fill:#f9f9f9;stroke-width:0.26458332"
         id="path2223"
         inkscape:connector-curvature="0" />
      <path
         d="m 95.664171,62.119138 c 1.248833,-0.04233 2.159,-0.04233 2.794,-0.04233 1.016,0 2.031999,0.02117 3.005669,0.04233 v -0.783166 c -1.10067,0 -1.481669,-0.169334 -1.481669,-1.037167 v -3.979333 c 0,-1.037167 0.677329,-2.010833 1.227669,-2.010833 0.508,0 0.6985,1.100666 1.67216,1.100666 0.80434,0 1.31234,-0.508 1.31234,-1.291166 0,-0.9525 -0.635,-1.502834 -1.73567,-1.502834 -0.93133,0 -1.88383,0.5715 -2.666999,1.735667 l -0.169333,-1.8415 h -0.359834 c -0.867833,0.338667 -2.074333,0.5715 -3.577166,0.740833 v 0.740834 c 1.100666,0.02117 1.312333,0.550333 1.312333,1.926166 v 4.318 c 0,0.804333 -0.296333,0.994833 -1.3335,1.100667 z"
         style="fill:#f9f9f9;stroke-width:0.26458332"
         id="path2225"
         inkscape:connector-curvature="0" />
      <path
         d="m 105.89726,59.473305 c 0,2.010833 0.55034,2.899833 2.43417,2.899833 1.3335,0 2.3495,-0.550333 3.06917,-1.672166 l -0.71967,-0.592667 c -0.35983,0.550333 -0.71967,0.804333 -1.16417,0.804333 -0.59266,0 -0.6985,-0.359833 -0.6985,-1.079499 v -6.096 h 2.18017 v -0.973667 h -2.18017 v -2.963333 h -0.8255 c -0.635,1.7145 -1.5875,2.815166 -3.15383,3.090333 v 0.846667 h 1.05833 z"
         style="fill:#f9f9f9;stroke-width:0.26458332"
         id="path2227"
         inkscape:connector-curvature="0" />
      <path
         d="m 111.91124,62.119138 c 1.24883,-0.04233 2.159,-0.04233 2.794,-0.04233 1.016,0 2.032,0.02117 3.00567,0.04233 v -0.783166 c -1.10067,0 -1.48167,-0.169334 -1.48167,-1.037167 v -3.979333 c 0,-1.037167 0.67733,-2.010833 1.22767,-2.010833 0.508,0 0.6985,1.100666 1.67216,1.100666 0.80434,0 1.31234,-0.508 1.31234,-1.291166 0,-0.9525 -0.635,-1.502834 -1.73567,-1.502834 -0.93133,0 -1.88383,0.5715 -2.667,1.735667 l -0.16933,-1.8415 h -0.35984 c -0.86783,0.338667 -2.07433,0.5715 -3.57716,0.740833 v 0.740834 c 1.10066,0.02117 1.31233,0.550333 1.31233,1.926166 v 4.318 c 0,0.804333 -0.29633,0.994833 -1.3335,1.100667 z"
         style="fill:#f9f9f9;stroke-width:0.26458332"
         id="path2229"
         inkscape:connector-curvature="0" />
      <path
         d="m 129.80667,59.642639 c -0.42334,0.486833 -0.762,0.804333 -1.016,0.973666 -0.46567,0.296333 -0.97367,0.4445 -1.54517,0.4445 -1.778,0 -2.794,-1.248833 -2.794,-3.6195 0,-0.127 0.0212,-0.275166 0.0212,-0.423333 h 6.223 v -0.169333 c 0,-2.772834 -1.56634,-4.339167 -4.21217,-4.339167 -3.15383,0 -5.24933,2.0955 -5.24933,5.0165 0,2.836333 2.07433,4.847166 5.05883,4.847166 1.86267,0 3.25967,-0.677333 4.23333,-2.095499 z m -5.334,-3.6195 c 0.14816,-1.756834 0.74083,-2.624667 1.86266,-2.624667 1.03717,0 1.60867,0.8255 1.60867,2.370667 v 0.254 z"
         style="fill:#f9f9f9;stroke-width:0.26458332"
         id="path2231"
         inkscape:connector-curvature="0" />
      <path
         d="m 132.21867,62.246138 h 0.80434 l 0.3175,-0.804333 c 0.55033,0.5715 1.54516,0.931333 2.81516,0.931333 2.18017,0 3.556,-1.27 3.556,-3.090333 0,-1.5875 -0.97366,-2.561166 -3.02683,-3.259666 -1.48167,-0.508 -2.32833,-0.613834 -2.32833,-1.545167 0,-0.613833 0.55033,-1.0795 1.397,-1.0795 1.12183,0 2.159,0.740833 2.667,2.010833 h 0.80433 c -0.0212,-0.529166 -0.0212,-0.994833 -0.0212,-1.418166 0,-0.4445 0,-0.889 0.0212,-1.375834 h -0.80433 l -0.40217,0.6985 c -0.5715,-0.486833 -1.48167,-0.804333 -2.49767,-0.804333 -1.94733,0 -3.15383,1.227667 -3.15383,3.048 0,1.820333 1.12183,2.370667 3.32317,3.175 1.143,0.423333 1.82033,0.677333 1.82033,1.524 0,0.656166 -0.65617,1.2065 -1.5875,1.2065 -1.24883,0 -2.49767,-0.889 -2.94217,-2.370667 h -0.762 c 0.0423,0.635 0.0423,1.164167 0.0423,1.5875 0,0.402167 0,0.931333 -0.0423,1.566333 z"
         style="fill:#f9f9f9;stroke-width:0.26458332"
         id="path2233"
         inkscape:connector-curvature="0" />
      <path
         d="m 141.47909,62.246138 h 0.80433 l 0.3175,-0.804333 c 0.55034,0.5715 1.54517,0.931333 2.81517,0.931333 2.18017,0 3.556,-1.27 3.556,-3.090333 0,-1.5875 -0.97367,-2.561166 -3.02683,-3.259666 -1.48167,-0.508 -2.32834,-0.613834 -2.32834,-1.545167 0,-0.613833 0.55034,-1.0795 1.397,-1.0795 1.12184,0 2.159,0.740833 2.667,2.010833 h 0.80434 c -0.0212,-0.529166 -0.0212,-0.994833 -0.0212,-1.418166 0,-0.4445 0,-0.889 0.0212,-1.375834 h -0.80434 l -0.40216,0.6985 c -0.5715,-0.486833 -1.48167,-0.804333 -2.49767,-0.804333 -1.94733,0 -3.15383,1.227667 -3.15383,3.048 0,1.820333 1.12183,2.370667 3.32316,3.175 1.143,0.423333 1.82034,0.677333 1.82034,1.524 0,0.656166 -0.65617,1.2065 -1.5875,1.2065 -1.24884,0 -2.49767,-0.889 -2.94217,-2.370667 h -0.762 c 0.0423,0.635 0.0423,1.164167 0.0423,1.5875 0,0.402167 0,0.931333 -0.0423,1.566333 z"
         style="fill:#f9f9f9;stroke-width:0.26458332"
         id="path2235"
         inkscape:connector-curvature="0" />
    </g>
    <g
       transform="translate(-15.649356,-41.506723)"
       aria-label="my"
       style="font-style:normal;font-variant:normal;font-weight:normal;font-stretch:normal;font-size:21.16666603px;line-height:1.25;font-family:Baskerville;-inkscape-font-specification:Baskerville;letter-spacing:-1.55045819px;word-spacing:0px;fill:#cccccc;fill-opacity:1;stroke:none;stroke-width:0.26458332;filter:url(#filter1251-3)"
       id="text817-6">
      <path
         inkscape:connector-curvature="0"
         d="m 70.930699,95.7994 q 0.229306,0.458611 0.229306,1.075972 1.287639,-1.164166 2.716389,-1.164166 0.652639,0 1.199444,0.299861 0.546806,0.299861 0.776112,0.864305 1.358194,-1.164166 2.69875,-1.164166 1.252361,0 1.781527,0.635 0.529167,0.635 0.529167,1.887361 v 3.051523 q 0,0.70556 0.246945,1.05834 0.264583,0.33514 0.934861,0.35278 v 0.5468 h -3.827639 v -0.5468 q 0.670278,-0.0176 0.917222,-0.35278 0.264583,-0.35278 0.264583,-1.05834 v -2.822218 q 0,-0.917222 -0.299861,-1.375833 -0.299861,-0.47625 -1.234722,-0.47625 -1.023056,0 -1.834445,0.864306 v 0.635 3.174995 q 0,0.70556 0.246945,1.05834 0.246944,0.33514 0.917222,0.35278 v 0.5468 h -3.81 v -0.5468 q 0.670278,-0.0176 0.917222,-0.35278 0.246945,-0.35278 0.246945,-1.05834 v -2.963329 q 0,-1.710972 -1.516945,-1.710972 -0.881944,0 -1.869722,0.864306 v 3.809995 q 0,0.70556 0.246944,1.05834 0.264584,0.33514 0.934862,0.35278 v 0.5468 h -3.827639 v -0.5468 q 0.670277,-0.0176 0.917222,-0.35278 0.264583,-0.35278 0.264583,-1.05834 v -3.033884 q 0,-0.687917 -0.264583,-1.040695 -0.264583,-0.370416 -0.917222,-0.388055 v -0.529167 q 1.464027,-0.211667 2.416527,-0.493889 z"
         style="font-size:17.63888931px;letter-spacing:-1.55045819px;fill:#cccccc;fill-opacity:1;stroke-width:0.26458332"
         id="path1276-2" />
      <path
         inkscape:connector-curvature="0"
         d="m 89.028586,95.922872 v 0.529167 l -0.176389,0.01764 q -0.740833,0.07056 -1.023056,0.670278 l -3.757083,8.219723 q -0.01764,0.0529 -0.141111,0.33514 -0.123472,0.28222 -0.176389,0.38805 -0.05292,0.12347 -0.194028,0.38806 -0.123472,0.28222 -0.229305,0.42333 -0.08819,0.14111 -0.246945,0.35278 -0.141111,0.2293 -0.282222,0.33514 -0.123472,0.12347 -0.299861,0.24694 -0.15875,0.14111 -0.352778,0.19403 -0.194028,0.0529 -0.388055,0.0529 -0.335139,0 -0.599723,-0.17639 -0.264583,-0.17639 -0.264583,-0.51153 0,-0.21167 0.123472,-0.38806 0.05292,0 0.141111,0.0176 0.08819,0.0176 0.123473,0.0176 0.493888,0 0.917222,-0.28222 0.440972,-0.26458 0.79375,-0.79375 0.370416,-0.52917 0.599722,-0.9525 0.229306,-0.42333 0.529167,-1.11125 0.3175,-0.68792 0.405694,-0.88194 l -2.751667,-5.873753 q -0.3175,-0.652639 -1.093611,-0.687917 v -0.529167 h 3.386667 v 0.529167 q -0.758472,0 -0.758472,0.370417 0,0.105833 0.07055,0.3175 l 1.905,4.127503 1.852084,-4.127503 q 0.105833,-0.246945 0.123472,-0.388056 v -0.01764 q 0,-0.08819 -0.05292,-0.141111 -0.03528,-0.05292 -0.141111,-0.07055 -0.08819,-0.03528 -0.15875,-0.03528 -0.07055,-0.01764 -0.194028,-0.01764 -0.123472,-0.01764 -0.141111,-0.01764 H 86.4533 v -0.529167 z"
         style="font-size:17.63888931px;letter-spacing:-1.55045819px;fill:#cccccc;fill-opacity:1;stroke-width:0.26458332"
         id="path1278-9" />
    </g>
  </g>
</svg>
