<?xml version="1.0" encoding="UTF-8" standalone="no"?>
<!-- Created with Inkscape (http://www.inkscape.org/) -->

<svg
   xmlns:dc="http://purl.org/dc/elements/1.1/"
   xmlns:cc="http://creativecommons.org/ns#"
   xmlns:rdf="http://www.w3.org/1999/02/22-rdf-syntax-ns#"
   xmlns:svg="http://www.w3.org/2000/svg"
   xmlns="http://www.w3.org/2000/svg"
   xmlns:sodipodi="http://sodipodi.sourceforge.net/DTD/sodipodi-0.dtd"
   xmlns:inkscape="http://www.inkscape.org/namespaces/inkscape"
   width="132mm"
   height="32mm"
   viewBox="0 0 132 32"
   version="1.1"
   id="svg8"
   inkscape:version="0.92.3 (2405546, 2018-03-11)"
   sodipodi:docname="LogoTemplate.svg">
  <defs
     id="defs2">
    <filter
       style="color-interpolation-filters:sRGB"
       inkscape:label="Drop Shadow"
       id="filter490"
       x="-0.11"
       y="-0.050000001"
       height="1.26"
       width="1.23">
      <feFlood
         flood-opacity="0.498039"
         flood-color="rgb(0,0,0)"
         result="flood"
         id="feFlood480" />
      <feComposite
         in="flood"
         in2="SourceGraphic"
         operator="in"
         result="composite1"
         id="feComposite482" />
      <feGaussianBlur
         in="composite1"
         stdDeviation="1.5"
         result="blur"
         id="feGaussianBlur484" />
      <feOffset
         dx="2.5"
         dy="2.5"
         result="offset"
         id="feOffset486" />
      <feComposite
         in="SourceGraphic"
         in2="offset"
         operator="over"
         result="composite2"
         id="feComposite488" />
    </filter>
  </defs>
  <sodipodi:namedview
     id="base"
     pagecolor="#7b1fa2"
     bordercolor="#666666"
     borderopacity="1.0"
     inkscape:pageopacity="0"
     inkscape:pageshadow="2"
     inkscape:zoom="1.979899"
     inkscape:cx="205.44082"
     inkscape:cy="23.571236"
     inkscape:document-units="mm"
     inkscape:current-layer="layer1"
     showgrid="false"
     inkscape:window-width="1885"
     inkscape:window-height="1018"
     inkscape:window-x="1080"
     inkscape:window-y="25"
     inkscape:window-maximized="1" />
  <metadata
     id="metadata5">
    <rdf:RDF>
      <cc:Work
         rdf:about="">
        <dc:format>image/svg+xml</dc:format>
        <dc:type
           rdf:resource="http://purl.org/dc/dcmitype/StillImage" />
        <dc:title></dc:title>
      </cc:Work>
    </rdf:RDF>
  </metadata>
  <g
     inkscape:label="Layer 1"
     inkscape:groupmode="layer"
     id="layer1"
     transform="translate(0,-265)">
    <g
       aria-label="CMS"
       style="font-style:normal;font-variant:normal;font-weight:normal;font-stretch:normal;font-size:10.58333302px;line-height:1.25;font-family:'Street Corner Slab Bold';-inkscape-font-specification:'Street Corner Slab Bold, ';letter-spacing:0px;word-spacing:0px;fill:#000000;fill-opacity:1;stroke:none;stroke-width:0.26458332;filter:url(#filter490)"
       id="text12"
       transform="translate(-65.748304,178.53604)">
      <path
         d="m 89.611008,90.205849 q 0.139526,-0.837159 1.581299,-0.837159 1.767334,0 1.767334,0.992188 v 5.968628 q 0,1.16272 -1.79834,1.16272 -1.550293,0 -1.550293,-1.16272 v -1.178223 q -1.317749,-1.813843 -2.17041,-2.387451 -1.147217,-0.775146 -3.147095,-0.775146 -5.115967,0 -6.588745,4.325317 -0.697632,2.046387 -0.697632,4.185787 0,5.92212 3.33313,7.87549 1.720825,1.00769 3.720703,1.00769 4.294311,0 5.844604,-3.7052 0.356568,-1.22473 1.472779,-1.22473 0.775146,0 1.364257,0.57361 0.604615,0.5581 0.604615,1.31775 0,0.35657 -0.124024,0.62012 -2.511474,5.47253 -8.914184,5.47253 -7.177857,0 -9.720337,-5.86011 -1.224732,-2.83703 -1.224732,-6.06164 0,-7.332889 5.364014,-10.216434 2.542481,-1.364258 5.627564,-1.364258 3.100585,0 5.255493,1.271241 z"
         style="font-size:31.75px;letter-spacing:-2.64583325px;fill:#f2f2f2;stroke-width:0.26458332"
         id="path511"
         inkscape:connector-curvature="0" />
      <path
         d="m 117.13387,112.56107 h -6.09265 q -1.00769,0 -1.00769,-1.55029 0,-1.72082 1.00769,-1.72082 h 1.75183 V 95.709389 l -6.15466,12.154301 q -0.65112,0.94567 -1.5968,0.94567 -0.94568,0 -1.5813,-0.94567 L 97.445154,95.430336 v 13.859624 h 1.705322 q 1.209224,0 1.209224,1.75183 0,1.51928 -1.209224,1.51928 h -6.092651 q -1.00769,0 -1.00769,-1.55029 0,-1.72082 1.00769,-1.72082 h 0.945679 V 92.562294 h -0.945679 q -1.00769,0 -1.00769,-1.550293 0,-1.720825 1.00769,-1.720825 h 2.32544 q 0.06201,0 0.186035,0 0.124023,-0.0155 0.186035,-0.0155 2.418457,0 3.59668,1.937866 l 5.906615,12.200798 5.86011,-11.921745 q 1.0852,-2.201416 3.44165,-2.201416 h 2.57348 q 1.20923,0 1.20923,1.751831 0,1.519287 -1.20923,1.519287 h -0.89917 v 16.727663 h 0.89917 q 1.20923,0 1.20923,1.75183 0,1.51928 -1.20923,1.51928 z"
         style="font-size:31.75px;letter-spacing:-2.64583325px;fill:#f2f2f2;stroke-width:0.26458332"
         id="path513"
         inkscape:connector-curvature="0" />
      <path
         d="m 131.1847,111.53788 q -2.03089,0.89917 -4.49585,0.89917 -4.7594,0 -7.30188,-2.15491 -0.34107,0.0775 -0.79065,0.0775 -1.5503,0 -1.5503,-1.17823 v -2.79052 q -0.10852,-0.43408 0,-0.69763 v -2.46497 q 0,-0.99219 1.5813,-0.99219 1.76734,0 1.76734,0.99219 v 2.61999 q 0.35656,1.86036 2.75952,2.77503 1.72082,0.65112 3.39514,0.65112 3.47266,0 4.79041,-1.78283 0.58911,-0.77515 0.58911,-1.73633 0,-1.95337 -2.49597,-2.88355 -1.0542,-0.38757 -4.2323,-1.10071 -2.80603,-0.63562 -4.2323,-1.37976 -3.36414,-1.751828 -3.36414,-5.069455 0,-1.90686 1.10071,-3.410644 1.0542,-1.457275 2.88354,-2.201416 1.92237,-0.775147 4.27881,-0.775147 3.24011,0 5.33301,1.147217 0.27905,-0.63562 1.51929,-0.63562 1.76733,0 1.76733,0.992188 v 5.953125 q 0,1.178222 -1.79834,1.178222 -1.55029,0 -1.55029,-1.178222 v -0.868164 q -0.093,-0.108521 -0.12403,-0.279053 -0.74414,-3.178101 -5.02295,-3.178101 -1.98437,0 -3.27111,0.589112 -1.67432,0.790649 -1.67432,2.464965 0,1.53479 1.78284,2.356446 0.77514,0.356567 3.42614,0.930175 3.6587,0.806153 5.06946,1.441773 4.04627,1.813839 4.04627,5.674069 0,1.99988 -1.16272,3.61219 -1.11621,1.55029 -3.02307,2.40295 z"
         style="font-size:31.75px;letter-spacing:-2.64583325px;fill:#f2f2f2;stroke-width:0.26458332"
         id="path515"
         inkscape:connector-curvature="0" />
    </g>
    <g
       aria-label="-checker"
       style="font-style:normal;font-variant:normal;font-weight:normal;font-stretch:normal;font-size:10.58333302px;line-height:1.25;font-family:'Noto Serif CJK KR';-inkscape-font-specification:'Noto Serif CJK KR';letter-spacing:0px;word-spacing:0px;fill:#ececec;fill-opacity:1;stroke:none;stroke-width:0.26458332"
       id="text204"
       transform="translate(-65.748304,178.53604)">
      <path
         d="m 135.71151,108.88776 h 3.556 v -0.81845 h -3.556 z"
         style="font-size:14.11111069px;fill:#ececec;stroke-width:0.26458332"
         id="path518"
         inkscape:connector-curvature="0" />
      <path
         d="m 145.43253,106.23487 c 0.0847,0.79022 0.47977,1.08655 1.016,1.08655 0.42333,0 0.69144,-0.21166 0.81844,-0.66322 -0.21167,-1.21355 -1.32644,-2.11666 -2.82222,-2.11666 -2.17311,0 -4.00756,1.46755 -4.00756,4.02166 0,2.51178 1.62278,3.97933 3.75356,3.97933 1.48166,0 2.49766,-0.66322 3.07622,-1.83444 l -0.29633,-0.15522 c -0.508,0.67733 -1.18534,1.05833 -2.032,1.05833 -1.524,0 -2.55411,-1.18533 -2.55411,-3.23144 0,-2.10256 0.94544,-3.31611 2.286,-3.31611 0.18344,0 0.36688,0.0141 0.55033,0.0706 z"
         style="font-style:normal;font-variant:normal;font-weight:bold;font-stretch:normal;font-family:'Noto Serif CJK KR';-inkscape-font-specification:'Noto Serif CJK KR Bold';fill:#ececec"
         id="path520"
         inkscape:connector-curvature="0" />
      <path
         d="m 155.7903,111.76642 c -0.0141,-0.80433 -0.0282,-1.96144 -0.0282,-2.76577 v -1.69334 c 0,-1.96144 -0.81844,-2.76577 -2.159,-2.76577 -1.03011,0 -1.86267,0.47977 -2.70933,1.45344 v -2.86456 l 0.0564,-2.24366 -0.21167,-0.127 -2.794,0.60678 v 0.39511 l 1.143,0.0847 v 7.15434 c 0,0.77611 -0.0141,1.94733 -0.0282,2.75166 l -1.03011,0.127 v 0.43745 h 3.83822 v -0.43745 l -0.90311,-0.11289 c -0.0282,-0.80433 -0.0423,-1.98966 -0.0423,-2.76577 v -2.54 c 0.69144,-0.635 1.29822,-0.91723 1.86267,-0.91723 0.73377,0 1.143,0.42334 1.143,1.651 v 1.80623 c 0,0.80433 -0.0141,1.96144 -0.0282,2.75166 l -1.016,0.127 v 0.43745 h 3.86645 v -0.43745 z"
         style="font-style:normal;font-variant:normal;font-weight:bold;font-stretch:normal;font-family:'Noto Serif CJK KR';-inkscape-font-specification:'Noto Serif CJK KR Bold';fill:#ececec"
         id="path522"
         inkscape:connector-curvature="0" />
      <path
         d="m 159.69335,107.98465 c 0.0847,-2.06023 0.86077,-2.921 1.74977,-2.921 0.86078,0 1.46756,0.73377 1.46756,1.87677 0,0.71967 -0.15522,1.04423 -0.80433,1.04423 z m 4.88244,0.52211 c 0.0706,-0.23989 0.0988,-0.508 0.0988,-0.87489 0,-1.778 -1.17122,-3.09033 -3.10445,-3.09033 -1.97555,0 -3.83822,1.45344 -3.83822,3.99344 0,2.56822 1.60867,4.00755 3.82411,4.00755 1.397,0 2.46945,-0.66322 3.03389,-1.82033 l -0.28222,-0.19755 c -0.49389,0.66322 -1.10067,1.08655 -2.11667,1.08655 -1.36877,0 -2.44122,-0.94544 -2.49766,-3.10444 z"
         style="font-style:normal;font-variant:normal;font-weight:bold;font-stretch:normal;font-family:'Noto Serif CJK KR';-inkscape-font-specification:'Noto Serif CJK KR Bold';fill:#ececec"
         id="path524"
         inkscape:connector-curvature="0" />
      <path
         d="m 170.78843,106.23487 c 0.0847,0.79022 0.47978,1.08655 1.016,1.08655 0.42333,0 0.69144,-0.21166 0.81844,-0.66322 -0.21166,-1.21355 -1.32644,-2.11666 -2.82222,-2.11666 -2.17311,0 -4.00755,1.46755 -4.00755,4.02166 0,2.51178 1.62277,3.97933 3.75355,3.97933 1.48167,0 2.49767,-0.66322 3.07622,-1.83444 l -0.29633,-0.15522 c -0.508,0.67733 -1.18533,1.05833 -2.032,1.05833 -1.524,0 -2.55411,-1.18533 -2.55411,-3.23144 0,-2.10256 0.94544,-3.31611 2.286,-3.31611 0.18344,0 0.36689,0.0141 0.55033,0.0706 z"
         style="font-style:normal;font-variant:normal;font-weight:bold;font-stretch:normal;font-family:'Noto Serif CJK KR';-inkscape-font-specification:'Noto Serif CJK KR Bold';fill:#ececec"
         id="path526"
         inkscape:connector-curvature="0" />
      <path
         d="m 180.96276,111.76642 -2.59644,-4.72722 1.74977,-1.66511 1.41112,-0.15522 v -0.45156 h -3.64067 v 0.45156 l 1.35467,0.19755 -2.96334,2.921 v -5.207 l 0.0564,-2.24366 -0.19756,-0.127 -2.83633,0.60678 v 0.39511 l 1.143,0.0847 v 7.15434 c 0,0.79022 -0.0141,1.93322 -0.0282,2.75166 l -1.05834,0.127 v 0.43745 h 3.96522 v -0.43745 l -1.00188,-0.11289 c -0.0282,-0.80433 -0.0423,-1.93322 -0.0423,-2.76577 l 0.80434,-0.762 2.159,4.07811 h 2.68111 v -0.43745 z"
         style="font-style:normal;font-variant:normal;font-weight:bold;font-stretch:normal;font-family:'Noto Serif CJK KR';-inkscape-font-specification:'Noto Serif CJK KR Bold';fill:#ececec"
         id="path528"
         inkscape:connector-curvature="0" />
      <path
         d="m 184.22243,107.98465 c 0.0847,-2.06023 0.86077,-2.921 1.74977,-2.921 0.86078,0 1.46756,0.73377 1.46756,1.87677 0,0.71967 -0.15522,1.04423 -0.80433,1.04423 z m 4.88244,0.52211 c 0.0706,-0.23989 0.0988,-0.508 0.0988,-0.87489 0,-1.778 -1.17122,-3.09033 -3.10445,-3.09033 -1.97555,0 -3.83822,1.45344 -3.83822,3.99344 0,2.56822 1.60867,4.00755 3.82411,4.00755 1.397,0 2.46945,-0.66322 3.03389,-1.82033 l -0.28222,-0.19755 c -0.49389,0.66322 -1.10067,1.08655 -2.11667,1.08655 -1.36877,0 -2.44122,-0.94544 -2.49766,-3.10444 z"
         style="font-style:normal;font-variant:normal;font-weight:bold;font-stretch:normal;font-family:'Noto Serif CJK KR';-inkscape-font-specification:'Noto Serif CJK KR Bold';fill:#ececec"
         id="path530"
         inkscape:connector-curvature="0" />
      <path
         d="m 193.07384,104.68265 -0.19756,-0.127 -2.70933,0.86077 v 0.35278 l 1.11478,0.11289 c 0.0423,0.67733 0.0564,1.18533 0.0564,2.10256 v 1.016 c 0,0.77611 -0.0141,1.94733 -0.0282,2.75166 l -1.03011,0.127 v 0.43745 h 4.24744 v -0.43745 l -1.29822,-0.16933 c -0.0141,-0.80433 -0.0282,-1.94733 -0.0282,-2.70933 v -1.25589 c 0.29633,-0.98778 0.67733,-1.60867 1.27,-2.07434 l 0.15522,0.16934 c 0.35278,0.40922 0.64911,0.67733 1.11478,0.67733 0.66322,0 0.93133,-0.43744 0.97367,-1.07244 -0.16934,-0.66323 -0.67734,-0.90311 -1.27,-0.90311 -0.84667,0 -1.79211,0.74788 -2.24367,2.10255 z"
         style="font-style:normal;font-variant:normal;font-weight:bold;font-stretch:normal;font-family:'Noto Serif CJK KR';-inkscape-font-specification:'Noto Serif CJK KR Bold';fill:#ececec"
         id="path532"
         inkscape:connector-curvature="0" />
    </g>
    <text
       xml:space="preserve"
       style="font-style:normal;font-variant:normal;font-weight:normal;font-stretch:normal;font-size:10.58333302px;line-height:1.25;font-family:'Noto Serif CJK KR';-inkscape-font-specification:'Noto Serif CJK KR';letter-spacing:0px;word-spacing:0px;fill:#000000;fill-opacity:1;stroke:none;stroke-width:0.26458332"
       x="153.4127"
       y="124.07661"
       id="text208"><tspan
         sodipodi:role="line"
         id="tspan206"
         x="153.4127"
         y="134.71286"
         style="stroke-width:0.26458332" /></text>
    <g
       aria-label="check your website!"
       style="font-style:normal;font-variant:normal;font-weight:normal;font-stretch:normal;font-size:4.23333311px;line-height:1.25;font-family:'Noto Serif CJK KR';-inkscape-font-specification:'Noto Serif CJK KR';letter-spacing:0px;word-spacing:0px;fill:#999999;fill-opacity:1;stroke:none;stroke-width:0.26458332"
       id="text212"
       transform="translate(-65.748304,178.53604)">
      <path
         d="m 158.33388,116.06814 c -0.1524,0.22436 -0.3937,0.34713 -0.6604,0.34713 -0.4572,0 -0.77894,-0.34713 -0.77894,-0.9398 0,-0.5969 0.3048,-0.94827 0.73237,-0.94827 0.0889,0 0.18627,0.0169 0.28787,0.0508 l 0.0931,0.3175 c 0.0296,0.10584 0.0889,0.18204 0.2159,0.18204 0.1016,0 0.16933,-0.0508 0.18627,-0.15664 -0.0804,-0.33443 -0.4064,-0.56303 -0.79587,-0.56303 -0.55033,0 -1.0541,0.42757 -1.0541,1.14723 0,0.70274 0.4064,1.14724 1.02447,1.14724 0.41486,0 0.69426,-0.2032 0.8382,-0.54187 z"
         style="font-size:4.23333311px;fill:#999999;stroke-width:0.26458332"
         id="path535"
         inkscape:connector-curvature="0" />
      <path
         d="m 160.83803,116.40257 c -0.004,-0.23283 -0.008,-0.55457 -0.008,-0.7747 v -0.44027 c 0,-0.60113 -0.19473,-0.82973 -0.57997,-0.82973 -0.2921,0 -0.61383,0.17357 -0.85936,0.4445 v -0.93557 l 0.0169,-0.65193 -0.0635,-0.0381 -0.6477,0.1778 v 0.13123 l 0.38523,0.0339 v 2.1082 c 0,0.2159 -0.004,0.54187 -0.008,0.7747 l -0.36407,0.055 v 0.13547 h 1.03717 v -0.13547 l -0.33444,-0.0508 c -0.004,-0.23706 -0.008,-0.56303 -0.008,-0.77893 V 114.959 c 0.27516,-0.26246 0.49106,-0.33866 0.70273,-0.33866 0.27517,0 0.4064,0.14393 0.4064,0.5842 v 0.42333 c 0,0.22013 -0.004,0.54187 -0.008,0.77893 l -0.35983,0.0508 v 0.13547 h 1.03293 v -0.13547 z"
         style="font-size:4.23333311px;fill:#999999;stroke-width:0.26458332"
         id="path537"
         inkscape:connector-curvature="0" />
      <path
         d="m 161.88492,115.31884 c 0.0508,-0.53764 0.35983,-0.79164 0.66886,-0.79164 0.32597,0 0.55034,0.2667 0.55034,0.56304 0,0.13546 -0.0423,0.2286 -0.2286,0.2286 z m 1.50706,0.1651 c 0.0212,-0.0635 0.0296,-0.1524 0.0296,-0.26247 0,-0.52917 -0.3556,-0.8636 -0.84667,-0.8636 -0.5588,0 -1.03717,0.45297 -1.03717,1.15993 0,0.7239 0.42757,1.13454 1.02024,1.13454 0.3937,0 0.6858,-0.19474 0.85936,-0.49954 l -0.0889,-0.0677 c -0.1651,0.19897 -0.36406,0.3302 -0.66463,0.3302 -0.44873,0 -0.77893,-0.30903 -0.78317,-0.93557 z"
         style="font-size:4.23333311px;fill:#999999;stroke-width:0.26458332"
         id="path539"
         inkscape:connector-curvature="0" />
      <path
         d="m 165.62645,116.06814 c -0.1524,0.22436 -0.3937,0.34713 -0.6604,0.34713 -0.4572,0 -0.77893,-0.34713 -0.77893,-0.9398 0,-0.5969 0.3048,-0.94827 0.73237,-0.94827 0.0889,0 0.18626,0.0169 0.28786,0.0508 l 0.0931,0.3175 c 0.0296,0.10584 0.0889,0.18204 0.2159,0.18204 0.1016,0 0.16933,-0.0508 0.18626,-0.15664 -0.0804,-0.33443 -0.4064,-0.56303 -0.79586,-0.56303 -0.55034,0 -1.0541,0.42757 -1.0541,1.14723 0,0.70274 0.4064,1.14724 1.02446,1.14724 0.41487,0 0.69427,-0.2032 0.8382,-0.54187 z"
         style="font-size:4.23333311px;fill:#999999;stroke-width:0.26458332"
         id="path541"
         inkscape:connector-curvature="0" />
      <path
         d="m 168.03324,116.41527 -0.78317,-1.23613 0.55457,-0.5588 0.42756,-0.055 v -0.14816 h -1.0541 v 0.14816 l 0.37254,0.0677 -0.85514,0.88476 v -1.651 l 0.0127,-0.65193 -0.0635,-0.0381 -0.65616,0.1778 v 0.13123 l 0.38523,0.0339 v 2.1082 c 0,0.24977 -0.004,0.52493 -0.008,0.7747 l -0.381,0.055 v 0.13547 h 1.08797 v -0.13547 l -0.3683,-0.055 c -0.004,-0.21167 -0.008,-0.4445 -0.008,-0.6604 l 0.3302,-0.33443 0.7366,1.18533 h 0.5842 v -0.13547 z"
         style="font-size:4.23333311px;fill:#999999;stroke-width:0.26458332"
         id="path543"
         inkscape:connector-curvature="0" />
      <path
         d="m 171.77808,114.41714 h -0.88476 v 0.13123 l 0.41486,0.055 -0.60113,1.68064 -0.6223,-1.68487 0.4064,-0.0466 v -0.13546 h -1.04987 v 0.13123 l 0.27094,0.0381 0.8382,2.11667 -0.0381,0.0974 c -0.10584,0.2921 -0.254,0.55034 -0.4699,0.70274 l -0.0339,-0.0339 c -0.11007,-0.10583 -0.19897,-0.15663 -0.3175,-0.15663 -0.12277,0 -0.2413,0.055 -0.2667,0.16933 0.004,0.16087 0.18627,0.2667 0.3937,0.2667 0.3429,0 0.63077,-0.31327 0.92287,-1.08797 l 0.77893,-2.06163 0.25823,-0.0508 z"
         style="font-size:4.23333311px;fill:#999999;stroke-width:0.26458332"
         id="path545"
         inkscape:connector-curvature="0" />
      <path
         d="m 172.94754,116.65234 c 0.5207,0 1.03717,-0.37254 1.03717,-1.13877 0,-0.77047 -0.52494,-1.1557 -1.03717,-1.1557 -0.52493,0 -1.0414,0.38523 -1.0414,1.1557 0,0.76623 0.51647,1.13877 1.0414,1.13877 z m 0,-0.16934 c -0.42757,0 -0.68157,-0.33443 -0.68157,-0.96943 0,-0.63077 0.254,-0.98637 0.68157,-0.98637 0.42333,0 0.68157,0.3556 0.68157,0.98637 0,0.635 -0.25824,0.96943 -0.68157,0.96943 z"
         style="font-size:4.23333311px;fill:#999999;stroke-width:0.26458332"
         id="path547"
         inkscape:connector-curvature="0" />
      <path
         d="m 176.37204,116.4068 v -1.32926 l 0.0169,-0.64347 -0.0466,-0.0466 -0.62653,0.055 v 0.13546 l 0.34713,0.0593 -0.008,1.40547 c -0.2159,0.22436 -0.44873,0.33866 -0.69003,0.33866 -0.27517,0 -0.41063,-0.1524 -0.41063,-0.59266 v -0.7112 l 0.0212,-0.64347 -0.0423,-0.0466 -0.635,0.055 v 0.13546 l 0.35137,0.0593 -0.0127,1.17687 c -0.004,0.6223 0.22013,0.8382 0.60113,0.8382 0.29633,0 0.58843,-0.1524 0.8255,-0.4445 l 0.0339,0.42333 0.60113,-0.0381 v -0.13547 z"
         style="font-size:4.23333311px;fill:#999999;stroke-width:0.26458332"
         id="path549"
         inkscape:connector-curvature="0" />
      <path
         d="m 177.70839,114.40444 -0.0593,-0.0423 -0.6096,0.22437 v 0.13547 l 0.37677,0.0296 c 0.008,0.19897 0.0169,0.37253 0.0169,0.64347 v 0.23283 c 0,0.2159 -0.004,0.54187 -0.0127,0.77893 l -0.34713,0.0508 v 0.13547 h 1.0795 v -0.13547 l -0.38947,-0.055 c -0.004,-0.23707 -0.008,-0.5588 -0.008,-0.7747 v -0.38523 c 0.10584,-0.2921 0.2413,-0.48684 0.44027,-0.61807 l 0.0593,0.0508 c 0.0847,0.072 0.1651,0.12277 0.27093,0.12277 0.1651,0 0.23707,-0.10584 0.23707,-0.28787 -0.0466,-0.0931 -0.18627,-0.1524 -0.32174,-0.1524 -0.2667,0 -0.53763,0.2286 -0.69003,0.60113 z"
         style="font-size:4.23333311px;fill:#999999;stroke-width:0.26458332"
         id="path551"
         inkscape:connector-curvature="0" />
      <path
         d="m 183.35962,114.41714 h -0.84243 v 0.14816 l 0.3683,0.055 -0.46567,1.53246 -0.56726,-1.5367 0.3556,-0.0508 v -0.14816 h -0.96944 v 0.14816 l 0.35137,0.0508 -0.55457,1.5367 -0.51646,-1.54093 0.37253,-0.0466 v -0.14816 h -1.01177 v 0.14816 l 0.27517,0.0423 0.7366,2.01506 h 0.1397 l 0.63077,-1.73143 c 0.1143,0.35983 0.254,0.762 0.61806,1.73143 h 0.14394 l 0.66886,-2.0066 0.2667,-0.0508 z"
         style="font-size:4.23333311px;fill:#999999;stroke-width:0.26458332"
         id="path553"
         inkscape:connector-curvature="0" />
      <path
         d="m 183.87014,115.31884 c 0.0508,-0.53764 0.35983,-0.79164 0.66886,-0.79164 0.32597,0 0.55034,0.2667 0.55034,0.56304 0,0.13546 -0.0423,0.2286 -0.2286,0.2286 z m 1.50706,0.1651 c 0.0212,-0.0635 0.0296,-0.1524 0.0296,-0.26247 0,-0.52917 -0.3556,-0.8636 -0.84667,-0.8636 -0.5588,0 -1.03717,0.45297 -1.03717,1.15993 0,0.7239 0.42757,1.13454 1.02024,1.13454 0.3937,0 0.6858,-0.19474 0.85936,-0.49954 l -0.0889,-0.0677 c -0.1651,0.19897 -0.36406,0.3302 -0.66463,0.3302 -0.44873,0 -0.77893,-0.30903 -0.78317,-0.93557 z"
         style="font-size:4.23333311px;fill:#999999;stroke-width:0.26458332"
         id="path555"
         inkscape:connector-curvature="0" />
      <path
         d="m 186.44003,114.85317 c 0.26247,-0.2413 0.44874,-0.28363 0.6096,-0.28363 0.37254,0 0.635,0.32173 0.635,0.93556 0,0.65617 -0.3048,0.93134 -0.65616,0.93134 -0.18627,0 -0.38947,-0.0762 -0.58844,-0.27094 z m -0.0127,-0.98637 0.0169,-0.65193 -0.0635,-0.0381 -0.6477,0.1778 v 0.13123 l 0.38523,0.0381 v 2.10397 c 0,0.2159 -0.004,0.54187 -0.008,0.7747 l -0.36406,0.055 v 0.13547 l 0.65193,0.0423 0.0339,-0.3175 c 0.21166,0.25824 0.4445,0.33444 0.6604,0.33444 0.55033,0 0.93556,-0.47414 0.93556,-1.17264 0,-0.69426 -0.37676,-1.12183 -0.88053,-1.12183 -0.24553,0 -0.4953,0.1016 -0.71967,0.35137 z"
         style="font-size:4.23333311px;fill:#999999;stroke-width:0.26458332"
         id="path557"
         inkscape:connector-curvature="0" />
      <path
         d="m 189.25077,115.3019 c -0.31327,-0.11853 -0.4318,-0.20743 -0.4318,-0.42333 0,-0.20743 0.15663,-0.35137 0.46566,-0.35137 0.12277,0 0.2413,0.0296 0.3556,0.0931 l 0.0762,0.37676 h 0.18627 l 0.0169,-0.4572 c -0.2032,-0.11853 -0.38946,-0.18203 -0.635,-0.18203 -0.49953,0 -0.7747,0.28787 -0.7747,0.61807 0,0.31326 0.22014,0.49106 0.5588,0.61383 l 0.21167,0.0804 c 0.30903,0.1143 0.44027,0.22014 0.44027,0.42757 0,0.2286 -0.1778,0.38523 -0.55457,0.38523 -0.15663,0 -0.28363,-0.0296 -0.39793,-0.0804 l -0.0931,-0.41063 h -0.2032 l 0.0169,0.4953 c 0.22436,0.10583 0.42333,0.1651 0.67733,0.1651 0.57573,0 0.86783,-0.3048 0.86783,-0.63924 0,-0.28363 -0.16933,-0.48683 -0.61806,-0.65193 z"
         style="font-size:4.23333311px;fill:#999999;stroke-width:0.26458332"
         id="path559"
         inkscape:connector-curvature="0" />
      <path
         d="m 190.93014,113.78637 c 0.1524,0 0.27094,-0.10583 0.27094,-0.25823 0,-0.15664 -0.11854,-0.25824 -0.27094,-0.25824 -0.14816,0 -0.2667,0.1016 -0.2667,0.25824 0,0.1524 0.11854,0.25823 0.2667,0.25823 z m 0.1778,2.6162 c -0.004,-0.23283 -0.008,-0.5588 -0.008,-0.7747 v -0.6223 l 0.0127,-0.60113 -0.0635,-0.0423 -0.66464,0.22014 v 0.1397 l 0.38947,0.0254 c 0.008,0.21166 0.008,0.381 0.008,0.64346 v 0.23707 c 0,0.2159 -0.004,0.54187 -0.008,0.7747 l -0.36407,0.055 v 0.13547 h 1.03294 v -0.13547 z"
         style="font-size:4.23333311px;fill:#999999;stroke-width:0.26458332"
         id="path561"
         inkscape:connector-curvature="0" />
      <path
         d="m 192.98847,116.33484 c -0.11853,0.0847 -0.21167,0.12276 -0.32173,0.12276 -0.17357,0 -0.27517,-0.10583 -0.27517,-0.3556 v -1.49013 h 0.63923 v -0.19473 h -0.635 l 0.0254,-0.63924 h -0.23283 l -0.1016,0.62654 -0.4318,0.0508 v 0.15663 h 0.41487 v 1.13877 c 0,0.1651 -0.004,0.26246 -0.004,0.3683 0,0.35983 0.1778,0.5334 0.49954,0.5334 0.2159,0 0.38946,-0.0762 0.508,-0.21167 z"
         style="font-size:4.23333311px;fill:#999999;stroke-width:0.26458332"
         id="path563"
         inkscape:connector-curvature="0" />
      <path
         d="m 193.66799,115.31884 c 0.0508,-0.53764 0.35983,-0.79164 0.66886,-0.79164 0.32597,0 0.55034,0.2667 0.55034,0.56304 0,0.13546 -0.0423,0.2286 -0.2286,0.2286 z m 1.50706,0.1651 c 0.0212,-0.0635 0.0296,-0.1524 0.0296,-0.26247 0,-0.52917 -0.3556,-0.8636 -0.84667,-0.8636 -0.5588,0 -1.03717,0.45297 -1.03717,1.15993 0,0.7239 0.42757,1.13454 1.02024,1.13454 0.3937,0 0.6858,-0.19474 0.85936,-0.49954 l -0.0889,-0.0677 c -0.1651,0.19897 -0.36406,0.3302 -0.66463,0.3302 -0.44873,0 -0.77893,-0.30903 -0.78317,-0.93557 z"
         style="font-size:4.23333311px;fill:#999999;stroke-width:0.26458332"
         id="path565"
         inkscape:connector-curvature="0" />
      <path
         d="m 196.06756,116.6481 c 0.14817,0 0.26247,-0.11853 0.26247,-0.25823 0,-0.13547 -0.1143,-0.25823 -0.26247,-0.25823 -0.14393,0 -0.25823,0.12276 -0.25823,0.25823 0,0.1397 0.1143,0.25823 0.25823,0.25823 z m 0,-3.21733 c -0.13123,0 -0.2159,0.0762 -0.2159,0.24553 0,0.1905 0.0466,0.60537 0.1016,1.23614 l 0.0508,0.74506 h 0.13123 l 0.0508,-0.74506 c 0.055,-0.63077 0.1016,-1.04564 0.1016,-1.23614 0,-0.16933 -0.0804,-0.24553 -0.22013,-0.24553 z"
         style="font-size:4.23333311px;fill:#999999;stroke-width:0.26458332"
         id="path567"
         inkscape:connector-curvature="0" />
    </g>
  </g>
</svg>
