<?xml version="1.0" encoding="UTF-8" standalone="no"?>
<!-- Created with Inkscape (http://www.inkscape.org/) -->

<svg
   xmlns:dc="http://purl.org/dc/elements/1.1/"
   xmlns:cc="http://creativecommons.org/ns#"
   xmlns:rdf="http://www.w3.org/1999/02/22-rdf-syntax-ns#"
   xmlns:svg="http://www.w3.org/2000/svg"
   xmlns="http://www.w3.org/2000/svg"
   xmlns:sodipodi="http://sodipodi.sourceforge.net/DTD/sodipodi-0.dtd"
   xmlns:inkscape="http://www.inkscape.org/namespaces/inkscape"
   width="133.90384mm"
   height="84.032181mm"
   viewBox="0 0 66.95192 42.016092"
   version="1.1"
   id="svg1561"
   inkscape:version="0.92.3 (2405546, 2018-03-11)"
   sodipodi:docname="logo_icon_only_setted.svg">
  <defs
     id="defs1555">
    <filter
       style="color-interpolation-filters:sRGB"
       inkscape:label="Drop Shadow"
       id="filter1121"
       height="1.33"
       width="1.23">
      <feFlood
         flood-opacity="0.63"
         flood-color="rgb(0,0,0)"
         result="flood"
         id="feFlood1111" />
      <feComposite
         in="flood"
         in2="SourceGraphic"
         operator="in"
         result="composite1"
         id="feComposite1113"
         flood-opacity="0.79000000000000004" />
      <feGaussianBlur
         in="composite1"
         stdDeviation="1"
         result="blur"
         id="feGaussianBlur1115" />
      <feOffset
         dx="1.7000000000000002"
         dy="1.7"
         result="offset"
         id="feOffset1117" />
      <feComposite
         in="SourceGraphic"
         in2="offset"
         operator="over"
         result="composite2"
         id="feComposite1119" />
    </filter>
    <filter
       style="color-interpolation-filters:sRGB"
       inkscape:label="Drop Shadow"
       id="filter1251">
      <feFlood
         flood-opacity="0.498039"
         flood-color="rgb(0,0,0)"
         result="flood"
         id="feFlood1241" />
      <feComposite
         in="flood"
         in2="SourceGraphic"
         operator="in"
         result="composite1"
         id="feComposite1243" />
      <feGaussianBlur
         in="composite1"
         stdDeviation="1"
         result="blur"
         id="feGaussianBlur1245" />
      <feOffset
         dx="0.7"
         dy="0.7"
         result="offset"
         id="feOffset1247" />
      <feComposite
         in="SourceGraphic"
         in2="offset"
         operator="over"
         result="composite2"
         id="feComposite1249" />
    </filter>
    <filter
       style="color-interpolation-filters:sRGB"
       inkscape:label="Drop Shadow"
       id="filter2050">
      <feFlood
         flood-opacity="0.498039"
         flood-color="rgb(0,0,0)"
         result="flood"
         id="feFlood2040" />
      <feComposite
         in="flood"
         in2="SourceGraphic"
         operator="in"
         result="composite1"
         id="feComposite2042" />
      <feGaussianBlur
         in="composite1"
         stdDeviation="1"
         result="blur"
         id="feGaussianBlur2044" />
      <feOffset
         dx="1"
         dy="1"
         result="offset"
         id="feOffset2046" />
      <feComposite
         in="SourceGraphic"
         in2="offset"
         operator="over"
         result="composite2"
         id="feComposite2048" />
    </filter>
    <filter
       style="color-interpolation-filters:sRGB"
       inkscape:label="Drop Shadow"
       id="filter1251-3"
       height="1.26">
      <feFlood
         flood-opacity="0.498039"
         flood-color="rgb(0,0,0)"
         result="flood"
         id="feFlood1241-6" />
      <feComposite
         in="flood"
         in2="SourceGraphic"
         operator="in"
         result="composite1"
         id="feComposite1243-7" />
      <feGaussianBlur
         in="composite1"
         stdDeviation="1"
         result="blur"
         id="feGaussianBlur1245-5" />
      <feOffset
         dx="0.7"
         dy="0.7"
         result="offset"
         id="feOffset1247-3" />
      <feComposite
         in="SourceGraphic"
         in2="offset"
         operator="over"
         result="composite2"
         id="feComposite1249-5" />
    </filter>
    <filter
       style="color-interpolation-filters:sRGB"
       inkscape:label="Drop Shadow"
       id="filter2113"
       height="1.3">
      <feFlood
         flood-opacity="0.498039"
         flood-color="rgb(0,0,0)"
         result="flood"
         id="feFlood2103" />
      <feComposite
         in="flood"
         in2="SourceGraphic"
         operator="in"
         result="composite1"
         id="feComposite2105" />
      <feGaussianBlur
         in="composite1"
         stdDeviation="1"
         result="blur"
         id="feGaussianBlur2107" />
      <feOffset
         dx="1.2"
         dy="1"
         result="offset"
         id="feOffset2109" />
      <feComposite
         in="SourceGraphic"
         in2="offset"
         operator="over"
         result="composite2"
         id="feComposite2111" />
    </filter>
  </defs>
  <sodipodi:namedview
     id="base"
     pagecolor="#3d4a58"
     bordercolor="#666666"
     borderopacity="1.0"
     inkscape:pageopacity="0"
     inkscape:pageshadow="2"
     inkscape:zoom="0.49497475"
     inkscape:cx="40.108778"
     inkscape:cy="253.14303"
     inkscape:document-units="mm"
     inkscape:current-layer="layer1"
     showgrid="false"
     inkscape:window-width="1885"
     inkscape:window-height="1018"
     inkscape:window-x="0"
     inkscape:window-y="25"
     inkscape:window-maximized="1"
     scale-x="0.5"
     fit-margin-top="0"
     fit-margin-left="0"
     fit-margin-right="0"
     fit-margin-bottom="0" />
  <metadata
     id="metadata1558">
    <rdf:RDF>
      <cc:Work
         rdf:about="">
        <dc:format>image/svg+xml</dc:format>
        <dc:type
           rdf:resource="http://purl.org/dc/dcmitype/StillImage" />
        <dc:title></dc:title>
      </cc:Work>
    </rdf:RDF>
  </metadata>
  <g
     inkscape:label="Layer 1"
     inkscape:groupmode="layer"
     id="layer1"
     transform="translate(-68.094001,-5.7053637)">
    <path
       style="fill:#f9f9f9;stroke-width:0.16033329;filter:url(#filter2050)"
       d="m 101.10288,44.218301 c -1.261082,-0.0134 -3.057162,-0.0823 -3.991292,-0.15307 -0.93413,-0.0708 -2.4245,-0.23837 -3.31193,-0.37243 -0.88743,-0.13405 -1.70904,-0.26815 -1.8258,-0.29797 -0.16767,-0.0429 -0.21231,-2.70923 -0.21231,-12.68002 0,-12.62577 0,-12.62577 0.57766,-12.87005 0.31771,-0.13436 0.67819,-0.24428 0.80107,-0.24428 0.12288,0 0.53169,-0.0949 0.90847,-0.21078 0.37677,-0.11594 1.41112,-0.33592 2.29855,-0.48887 1.27438,-0.21962 2.38097,-0.27576 5.265112,-0.26709 3.02715,0.009 3.92754,0.0645 5.26512,0.32424 0.88742,0.17229 2.11028,0.42842 2.71747,0.56917 0.60719,0.14075 1.23772,0.36161 1.4012,0.4908 0.27855,0.22011 0.29722,1.02187 0.29722,12.7638 0,11.80189 -0.0173,12.53343 -0.29722,12.60645 -0.16348,0.0426 -0.98509,0.17887 -1.82581,0.30277 -0.84072,0.12389 -2.48394,0.29871 -3.6516,0.38849 -1.16767,0.0898 -3.15483,0.15225 -4.41591,0.13884 z m 0.44968,-3.61163 c 1.33011,0 1.41779,-0.0201 1.50974,-0.34664 0.0537,-0.19065 0.0743,-1.85401 0.0457,-3.69638 -0.0508,-3.27507 -0.0608,-3.35815 -0.45018,-3.72719 -0.21904,-0.20758 -0.58501,-0.41921 -0.81328,-0.47026 -0.23728,-0.0531 -0.65673,0.009 -0.97941,0.14585 -0.31042,0.13126 -0.65141,0.40887 -0.75777,0.61688 -0.126532,0.24749 -0.193382,1.5704 -0.193382,3.82707 0,1.89688 0.051,3.49427 0.113232,3.54976 0.0623,0.0555 0.74868,0.10091 1.52535,0.10091 z m 0,-12.86531 c 1.33011,0 1.41779,-0.0201 1.50974,-0.34663 0.0537,-0.19065 0.0743,-1.85795 0.0457,-3.70511 -0.0519,-3.35289 -0.0526,-3.35911 -0.47653,-3.73633 -0.23354,-0.20782 -0.67142,-0.42178 -0.97306,-0.47548 -0.47325,-0.0842 -0.63045,-0.0245 -1.14644,0.43527 -0.597992,0.5329 -0.597992,0.5329 -0.597992,4.07969 0,1.95073 0.051,3.5922 0.113232,3.64769 0.0623,0.0555 0.74868,0.1009 1.52535,0.1009 z m -12.144512,15.42288 c -0.34031,-0.009 -0.84803,-0.0687 -1.12827,-0.13385 -0.28024,-0.0651 -0.9681,-0.23595 -1.52858,-0.37968 -0.56048,-0.14374 -1.36299,-0.34947 -1.78335,-0.45719 -0.42036,-0.10773 -1.37572,-0.40029 -2.123031,-0.65015 -0.74731,-0.24985 -1.99462,-0.69849 -2.7718,-0.99698 -0.77719,-0.29849 -2.15291,-0.88229 -3.05717,-1.29731 -0.90425,-0.41504 -2.02624,-0.97847 -2.49331,-1.25206 -0.84921,-0.49746 -0.84921,-0.49746 -0.84921,-5.25724 0,-4.75978 0,-4.75978 0.4246,-4.94702 0.23354,-0.10298 0.8567,-0.33676 1.38481,-0.51951 0.52812,-0.18275 1.08223,-0.29054 1.23136,-0.23954 0.2187,0.0748 0.27116,0.34007 0.27116,1.3714 0,0.88719 0.065,1.29866 0.2123,1.34398 0.11677,0.0359 0.4798,-0.0328 0.80675,-0.15274 0.32695,-0.11993 0.93838,-0.365 1.35874,-0.54461 0.76429,-0.32656 0.76429,-0.32656 0.84921,-1.84012 0.0849,-1.51357 0.0849,-1.51357 1.08067,-1.9363 0.54766,-0.23251 1.27374,-0.43684 1.6135,-0.45408 0.617761,-0.0314 0.617761,-0.0314 0.667691,1.25039 0.0285,0.73226 0.13116,1.32644 0.23942,1.38607 0.10422,0.0574 0.42568,0.0154 0.71436,-0.0934 0.28868,-0.10878 0.85339,-0.31866 1.25491,-0.46639 0.40152,-0.14772 0.78366,-0.3419 0.84921,-0.43151 0.0656,-0.0896 0.15739,-0.80995 0.2041,-1.60079 0.0849,-1.43789 0.0849,-1.43789 1.01905,-1.83987 0.51378,-0.2211 1.19369,-0.44741 1.51093,-0.50292 0.39676,-0.0694 0.62125,-0.0384 0.71923,0.0993 0.0784,0.11011 0.14361,4.6729 0.14504,10.13952 0.001,5.46662 -0.0438,10.04705 -0.10049,10.17872 -0.0699,0.16222 -0.3026,0.23442 -0.72183,0.22393 z m 24.580472,-0.0554 c -0.46858,0.0595 -0.82925,0.0386 -0.89197,-0.0519 -0.0579,-0.0835 -0.11219,-4.72665 -0.12059,-10.31808 -0.008,-5.59143 0.0324,-10.20869 0.0906,-10.26058 0.0582,-0.0519 0.39006,-0.0188 0.73741,0.0735 0.34735,0.0923 0.90929,0.26117 1.24874,0.37526 0.33945,0.1141 0.7407,0.29881 0.89167,0.41046 0.21658,0.16018 0.27449,0.49856 0.27449,1.60383 0,0.94002 0.0698,1.45002 0.21231,1.55034 0.11676,0.0823 0.73553,0.33374 1.37503,0.5589 0.6395,0.22516 1.27005,0.37269 1.40121,0.32784 0.17256,-0.059 0.23846,-0.36765 0.23846,-1.11686 0,-0.612 0.0905,-1.14564 0.22138,-1.30513 0.19243,-0.23451 0.30908,-0.24765 0.89168,-0.10044 0.36866,0.0931 1.01422,0.32074 1.43458,0.50575 0.76429,0.33639 0.76429,0.33639 0.84921,1.84995 0.0849,1.51357 0.0849,1.51357 1.05152,1.94435 0.53163,0.23693 1.21949,0.44127 1.52858,0.45407 0.56198,0.0233 0.56198,0.0233 0.61144,-1.23254 0.035,-0.89074 0.11701,-1.27894 0.28179,-1.33528 0.12778,-0.0437 0.48767,-0.0105 0.79975,0.0736 0.31209,0.0842 0.84516,0.24448 1.18461,0.35617 0.33945,0.1117 0.7407,0.29444 0.89167,0.4061 0.24192,0.17893 0.2745,0.75779 0.2745,4.87842 0,4.6754 0,4.6754 -0.91835,5.19891 -0.50508,0.28793 -1.97634,0.99564 -3.26946,1.57267 -1.29312,0.57703 -3.03899,1.28818 -3.87971,1.58033 -0.84072,0.29215 -2.25466,0.73289 -3.14209,0.97941 -0.88743,0.24653 -2.03386,0.55459 -2.54763,0.6846 -0.51377,0.13 -1.28814,0.28135 -1.72081,0.33632 z M 89.637038,17.449121 c -0.0148,0 -0.0778,-0.0455 -0.14006,-0.10091 -0.0623,-0.0555 -0.11206,-1.33256 -0.11063,-2.83793 0.001,-1.50537 0.0587,-2.81362 0.12739,-2.90723 0.0686,-0.0936 0.54514,-0.32156 1.05892,-0.50656 0.51377,-0.185 1.21662,-0.44063 1.5619,-0.56806 0.34528,-0.12744 0.74653,-0.19109 0.89167,-0.14145 0.19744,0.0675 0.2639,0.31548 0.2639,0.9846 0,0.57526 0.0835,0.95612 0.23411,1.06749 0.17351,0.12834 0.36034,0.12954 0.72183,0.004 0.26825,-0.0927 0.97855,-0.23174 1.57845,-0.30904 0.5999,-0.0773 1.19222,-0.21561 1.31628,-0.30736 0.14768,-0.10923 0.22555,-0.52785 0.22555,-1.21253 0,-0.70169 0.0698,-1.06668 0.2123,-1.10943 0.11677,-0.035 1.02988,-0.13352 2.02914,-0.21884 1.285662,-0.10976 2.378072,-0.10566 3.736532,0.014 1.05584,0.093 2.01524,0.23605 2.132,0.3178 0.13,0.091 0.21231,0.5208 0.21231,1.10859 0,0.8389 0.0482,0.98368 0.38214,1.14799 0.21019,0.10343 0.80251,0.23465 1.31629,0.29162 0.51376,0.057 1.22073,0.15394 1.57103,0.2155 0.63691,0.1119 0.63691,0.1119 0.63691,-0.79751 0,-0.61323 0.0809,-0.96922 0.24831,-1.09307 0.1974,-0.146 0.44989,-0.12096 1.23136,0.12207 0.54067,0.16815 1.28876,0.42038 1.66241,0.56051 0.37366,0.14015 0.73552,0.3323 0.80415,0.427 0.0686,0.0947 0.12595,1.41734 0.12739,2.93919 0.002,2.19017 -0.0454,2.78341 -0.22757,2.84571 -0.1266,0.0433 -0.6425,-0.0814 -1.14644,-0.27698 -0.50395,-0.19563 -1.41306,-0.47719 -2.02025,-0.62566 -0.60718,-0.14849 -1.47579,-0.36654 -1.93022,-0.48455 -0.45445,-0.11802 -0.98947,-0.21458 -1.18895,-0.21458 -0.19949,0 -0.89768,-0.10098 -1.55155,-0.22441 -0.77389,-0.14608 -2.16695,-0.22477 -3.99123,-0.22546 -2.019102,-5.8e-4 -3.324602,0.0808 -4.670662,0.29189 -1.02755,0.16112 -2.32684,0.39854 -2.88733,0.5276 -0.56047,0.12906 -1.77764,0.4733 -2.7048,0.76497 -0.92716,0.29169 -1.69782,0.53033 -1.71258,0.53033 z"
       id="path1544"
       inkscape:connector-curvature="0" />
  </g>
</svg>
